<svg width="25" height="25" viewBox="0 0 25 25" fill="none" xmlns="http://www.w3.org/2000/svg">
<g clip-path="url(#clip0)">
<path fill-rule="evenodd" clip-rule="evenodd" d="M12.4625 0C9.15737 0.000414307 5.98772 1.31356 3.65064 3.65064C1.31356 5.98772 0.000414307 9.15737 0 12.4625C0 17.9656 3.59375 22.6297 8.48594 24.3125C9.09844 24.3891 9.32656 24.0063 9.32656 23.7V21.5594C5.8875 22.325 5.12344 19.8781 5.12344 19.8781C4.5875 18.425 3.74688 18.0422 3.74688 18.0422C2.6 17.2781 3.82188 17.2781 3.82188 17.2781C5.04531 17.3547 5.73438 18.5781 5.73438 18.5781C6.88125 20.4891 8.63906 19.9531 9.32812 19.6484C9.40312 18.8078 9.78594 18.2734 10.0922 17.9672C7.33906 17.6609 4.43438 16.5906 4.43438 11.7734C4.43438 10.3984 4.89219 9.32656 5.73438 8.40938C5.65625 8.17969 5.19844 6.88125 5.8875 5.19844C5.8875 5.19844 6.95781 4.89219 9.32656 6.49844C10.3203 6.19219 11.3922 6.11562 12.4625 6.11562C13.5328 6.11562 14.6031 6.26875 15.5969 6.49844C17.9672 4.89375 19.0375 5.19844 19.0375 5.19844C19.725 6.88125 19.2656 8.17969 19.1891 8.48594C20.0311 9.40325 20.4954 10.6048 20.4891 11.85C20.4891 16.6672 17.5828 17.6609 14.8328 17.9672C15.2906 18.3484 15.6734 19.1125 15.6734 20.2594V23.7C15.6734 24.0063 15.9016 24.3875 16.5141 24.3125C18.9922 23.4762 21.1448 21.8821 22.6676 19.7557C24.1904 17.6292 25.0063 15.078 25 12.4625C24.9234 5.58125 19.3438 0 12.4625 0Z" fill="white"/>
</g>
<defs>
<clipPath id="clip0">
<rect width="25" height="25" fill="white"/>
</clipPath>
</defs>
</svg>
